<svg xmlns="http://www.w3.org/2000/svg" viewBox="0 0 774 123"><title>mask_title_K</title><polygon points="20 104.02 50.39 98.52 57.62 93.81 67.03 99.79 80.77 93.81 88.01 100.09 108.26 100.79 108.26 20.09 88.01 20.09 69.2 50.76 60.52 24.93 33.02 33 30.13 50.76 27.23 52.37 20 104.02"/><polygon points="122.73 100.5 156.01 97.6 174.82 100.5 184.95 99.05 169.04 49.85 166.14 49.85 156.01 22.36 141.54 22.36 122.73 100.5"/><polygon points="561.16 100.5 594.44 97.6 613.25 100.5 623.38 99.05 607.46 49.85 604.57 49.85 594.44 22.36 579.97 22.36 561.16 100.5"/><path d="M236.67,43.28V20.54s-12.31-4.26-21.54,0-16.92,12.79-18.46,21.32,0,17.05,1.3,22.79c1.25,5.52,9.48,4.93,11,5.63,3.08,1.42,4.13,9.46,0,11.37-3.08,1.42-10.77,1.42-10.77,1.42s-6.15,18.47-3.08,19.89,18.31,2.84,26.15,2.84c15.38,0,24.61-7.11,26.15-14.21,1.21-5.57,0-29.84-3.08-32.68s-13.84-1.42-16.92-2.84-3.08-7.11,0-9.95S236.67,43.28,236.67,43.28Z"/><path d="M287.69,23.53s-24.6,17.75-27.49,39.6,2.89,39.6,20.26,39.6,21.7-6.83,21.7-6.83l8.68,9.56s15.92-10.92,18.81-12.29-1.45-5.46-1.45-5.46l-13-10.92s13-5.46,11.58-25.95S321,30.36,315.18,24.89s-18.81-9.56-27.49-6.83Z"/><path d="M394.76,18H347s-5.79,49.2-2.89,68c2.3,14.93,11.58,18.81,30.39,18.81,16,0,23.15-10.13,23.15-28.94S394.76,18,394.76,18Z"/><path d="M417.91,23.88s-8.68,50.42-8.68,61.62-1.45,16.81,8.68,15.41,42-4.2,43.41-2.8,4.34-18.21,2.89-19.61-10.13,0-10.13,0l-1.45-8.4L457,65.9l-1.45-12.6-8.68-1.4V39.29s4.34-2.8,7.23-2.8,2.89-14,0-16.81S417.91,23.88,417.91,23.88Z"/><path d="M707.3,23.88s-8.68,50.42-8.68,61.62-1.45,16.81,8.68,15.41,42-4.2,43.41-2.8,4.34-18.21,2.89-19.61-10.13,0-10.13,0L742,70.1l4.34-4.2-1.45-12.6-8.68-1.4V39.29s4.34-2.8,7.23-2.8,2.89-14,0-16.81S707.3,23.88,707.3,23.88Z"/><path d="M483,27l-.22,75.8,24.75-3.19-2.72-4.32,43.43.38L527.82,64a27.51,27.51,0,0,0,14-23.29c.69-16.82-26.55-23.55-35.28-22.51S483,27,483,27Z"/><path d="M634.7,21.58l2.13,78.2s42,1.22,47.7-19.83-5.87-43.24-17-50.09S644.91,20.72,634.7,21.58Z"/></svg>