<svg xmlns="http://www.w3.org/2000/svg" xmlns:xlink="http://www.w3.org/1999/xlink" viewBox="0 0 99.32 110.51"><defs><style>.a{fill:#d97e0c;}.b{fill:url(#a);}</style><linearGradient id="a" x1="-114.69" y1="67.29" x2="65.3" y2="59.79" gradientUnits="userSpaceOnUse"><stop offset="0" stop-color="#79aa00"/><stop offset="0.09" stop-color="#78aa04"/><stop offset="0.18" stop-color="#75a811"/><stop offset="0.28" stop-color="#70a626"/><stop offset="0.38" stop-color="#6aa344"/><stop offset="0.48" stop-color="#61a06b"/><stop offset="0.58" stop-color="#569b9a"/><stop offset="0.68" stop-color="#4a96d0"/><stop offset="0.75" stop-color="#3f91ff"/><stop offset="0.78" stop-color="#4c8ff6"/><stop offset="0.83" stop-color="#6f89de"/><stop offset="0.9" stop-color="#a780b6"/><stop offset="0.99" stop-color="#f37480"/><stop offset="1" stop-color="#ff7278"/></linearGradient></defs><title>mask_ui</title><path class="a" d="M85.6,48.47,80.16,36,85.6,30.7l-16-17.77-6.4,11.85-12.81-3V7L24.75,21.81l2.48,8.05-11,16.75-7.45-1.1s-3.2,17.77,0,20.73c1.76,1.62,10.24,1,10.24,1L29.54,79.09l-8,4.93,16,8.89L40.76,84l13.37,1.87s2.64,6,2.64,7C56.77,95.86,76,87,76,87l-3.2-5.92,10-14,6,2.13L92,48.47Zm-20,17-12,3.7-12-3.7-4-7.41,4-11.11,8-7.41,16,7.41,4,11.11Z"/><path class="b" d="M85.6,58.47,80.16,46,85.6,40.7l-16-17.77-6.4,11.85-12.81-3V17L24.75,31.81l2.48,8.05-11,16.75-7.45-1.1s-3.2,17.77,0,20.73c1.76,1.62,10.24,1,10.24,1L29.54,89.09l-8,4.93,16,8.89L40.76,94l13.37,1.87s2.64,6,2.64,7C56.77,105.86,76,97,76,97l-3.2-5.92,10-14,6,2.13L92,58.47Zm-20,17-12,3.7-12-3.7-4-7.41,4-11.11,8-7.41,16,7.41,4,11.11Z"/></svg>